<svg width="40" height="24" viewBox="0 0 40 24" fill="none" xmlns="http://www.w3.org/2000/svg">
<path d="M19.9999 23.1648C19.5444 23.1648 19.1036 23.0794 18.6777 22.9086C18.2495 22.7377 17.893 22.5099 17.6083 22.2252L1.89161 6.50856C1.26522 5.88217 0.952026 5.08495 0.952026 4.11689C0.952026 3.14884 1.26522 2.35162 1.89161 1.72523C2.518 1.09884 3.31522 0.785645 4.28328 0.785645C5.25133 0.785645 6.04855 1.09884 6.67494 1.72523L19.9999 15.0502L33.3249 1.72523C33.9513 1.09884 34.7486 0.785645 35.7166 0.785645C36.6847 0.785645 37.4819 1.09884 38.1083 1.72523C38.7347 2.35162 39.0479 3.14884 39.0479 4.11689C39.0479 5.08495 38.7347 5.88217 38.1083 6.50856L22.3916 22.2252C22.0499 22.5669 21.6798 22.8083 21.2812 22.9496C20.8826 23.0931 20.4555 23.1648 19.9999 23.1648V23.1648Z" fill="#FEFEFE"/>
</svg>
