<svg width="17" height="17" viewBox="0 0 17 17" fill="none" xmlns="http://www.w3.org/2000/svg">
<g clip-path="url(#clip0_77_1476)">
<path d="M12.6643 11.0843C12.1416 10.5683 11.489 10.5683 10.9696 11.0843C10.5734 11.4772 10.1772 11.8701 9.78769 12.2696C9.68114 12.3795 9.59125 12.4028 9.4614 12.3295C9.20503 12.1897 8.93202 12.0765 8.68564 11.9233C7.53698 11.2009 6.57477 10.2719 5.72243 9.22649C5.29959 8.7071 4.92336 8.15108 4.66033 7.52515C4.60706 7.39863 4.61705 7.31539 4.72026 7.21218C5.11647 6.82929 5.50268 6.43642 5.89223 6.04354C6.43493 5.49751 6.43493 4.85826 5.8889 4.3089C5.57926 3.99593 5.26962 3.68962 4.95998 3.37665C4.64036 3.05703 4.32406 2.73407 4.0011 2.41777C3.47838 1.90837 2.82581 1.90837 2.30641 2.4211C1.90688 2.81398 1.52399 3.21684 1.1178 3.60306C0.741571 3.95931 0.551793 4.39546 0.511839 4.90487C0.44858 5.7339 0.651676 6.51632 0.938009 7.27877C1.52399 8.85693 2.41628 10.2586 3.49836 11.5438C4.95998 13.2818 6.70462 14.6568 8.74557 15.649C9.6645 16.0951 10.6167 16.4381 11.6522 16.4947C12.3647 16.5346 12.984 16.3548 13.48 15.7988C13.8196 15.4193 14.2025 15.073 14.5621 14.7101C15.0948 14.1707 15.0982 13.5182 14.5688 12.9854C13.9362 12.3495 13.3003 11.7169 12.6643 11.0843Z" fill="black"/>
<path d="M12.0283 8.43077L13.2569 8.22101C13.0638 7.09233 12.5311 6.07019 11.722 5.2578C10.8663 4.40213 9.78426 3.86276 8.59232 3.69629L8.41919 4.93152C9.34145 5.06136 10.1805 5.47754 10.843 6.1401C11.469 6.76604 11.8785 7.55845 12.0283 8.43077Z" fill="black"/>
<path d="M13.9493 3.09031C12.531 1.67197 10.7364 0.776344 8.75541 0.5L8.58228 1.73523C10.2936 1.97495 11.8451 2.75071 13.0704 3.97262C14.2323 5.13459 14.9948 6.60288 15.2711 8.21766L16.4997 8.00791C16.1767 6.13676 15.2944 4.43874 13.9493 3.09031Z" fill="black"/>
</g>
<defs>
<clipPath id="clip0_77_1476">
<rect width="16" height="16" fill="white" transform="translate(0.5 0.5)"/>
</clipPath>
</defs>
</svg>
