<svg width="1537" height="121" viewBox="0 0 1537 121" fill="none" xmlns="http://www.w3.org/2000/svg">
<path fill-rule="evenodd" clip-rule="evenodd" d="M1 1L1 34.5C65.6667 63 239.9 120 419.5 120C644 120 706.5 112 986 65.5C1217 27.0689 1435.83 89 1536.5 120V1H1Z" fill="#FBFBFB"/>
<path d="M1 1V0.5H0.5L0.5 1L1 1ZM1 34.5H0.5L0.5 34.826L0.798354 34.9575L1 34.5ZM986 65.5L985.918 65.0068L986 65.5ZM1536.5 120L1536.35 120.478L1537 120.677V120H1536.5ZM1536.5 1H1537V0.5H1536.5V1ZM0.5 1L0.5 34.5H1.5L1.5 1L0.5 1ZM0.798354 34.9575C65.5097 63.4772 239.813 120.5 419.5 120.5V119.5C239.987 119.5 65.8237 62.5228 1.20165 34.0425L0.798354 34.9575ZM419.5 120.5C644.037 120.5 706.567 112.496 986.082 65.9932L985.918 65.0068C706.433 111.504 643.963 119.5 419.5 119.5V120.5ZM986.082 65.9932C1216.96 27.5825 1435.7 89.481 1536.35 120.478L1536.65 119.522C1435.97 88.519 1217.04 26.5552 985.918 65.0068L986.082 65.9932ZM1537 120V1H1536V120H1537ZM1536.5 0.5H1V1.5H1536.5V0.5Z" fill="#FBFBFB"/>
</svg>
