<svg width="23" height="28" viewBox="0 0 23 34" fill="none" xmlns="http://www.w3.org/2000/svg">
<path d="M10 32.0029C10 32.8314 10.6716 33.5029 11.5 33.5029C12.3284 33.5029 13 32.8314 13 32.0029H10ZM12.5607 0.942268C11.9749 0.356481 11.0251 0.356481 10.4393 0.942268L0.893398 10.4882C0.307612 11.074 0.307612 12.0237 0.893398 12.6095C1.47918 13.1953 2.42893 13.1953 3.01472 12.6095L11.5 4.12425L19.9853 12.6095C20.5711 13.1953 21.5208 13.1953 22.1066 12.6095C22.6924 12.0237 22.6924 11.074 22.1066 10.4882L12.5607 0.942268ZM13 32.0029L13 2.00293H10L10 32.0029H13Z" fill="black"/>
</svg>
