<svg width="22" height="19" viewBox="0 0 22 19" fill="none" xmlns="http://www.w3.org/2000/svg">
<g clip-path="url(#clip0_204_2445)">
<path d="M20.0444 0H4.88889C3.81333 0 2.93333 1.31538 2.93333 2.92308V4.01923C2.93333 4.42115 3.15333 4.75 3.42222 4.75C3.69111 4.75 3.91111 4.42115 3.91111 4.01923V2.92308C3.91111 2.77692 3.93556 2.63077 3.96 2.48462L9.43556 9.5L3.96 16.5154C3.93556 16.3692 3.91111 16.2231 3.91111 16.0769V14.9808C3.91111 14.5788 3.69111 14.25 3.42222 14.25C3.15333 14.25 2.93333 14.5788 2.93333 14.9808V16.0769C2.93333 17.6846 3.81333 19 4.88889 19H20.0444C21.12 19 22 17.6846 22 16.0769V2.92308C22 1.31538 21.12 0 20.0444 0ZM4.69333 1.49808C4.74222 1.46154 4.81556 1.46154 4.88889 1.46154H20.0444C20.1178 1.46154 20.1911 1.46154 20.24 1.49808L12.7844 11.0346C12.5889 11.2538 12.3444 11.2538 12.1489 11.0346L4.69333 1.49808ZM20.0444 17.5385H4.88889C4.81556 17.5385 4.74222 17.5385 4.69333 17.5019L10.1933 10.45L11.5133 12.1673C11.7822 12.5327 12.1244 12.7154 12.4667 12.7154C12.8089 12.7154 13.1511 12.5327 13.42 12.1673L14.74 10.45L20.24 17.5019C20.1911 17.5385 20.1178 17.5385 20.0444 17.5385ZM21.0222 16.0769C21.0222 16.2231 20.9978 16.3692 20.9733 16.5154L15.4978 9.5L20.9733 2.48462C20.9978 2.63077 21.0222 2.77692 21.0222 2.92308V16.0769ZM1.46667 7.67308C1.46667 7.27115 1.68667 6.94231 1.95556 6.94231H4.88889C5.15778 6.94231 5.37778 7.27115 5.37778 7.67308C5.37778 8.075 5.15778 8.40385 4.88889 8.40385H1.95556C1.68667 8.40385 1.46667 8.075 1.46667 7.67308ZM4.88889 12.0577H0.488889C0.22 12.0577 0 11.7288 0 11.3269C0 10.925 0.22 10.5962 0.488889 10.5962H4.88889C5.15778 10.5962 5.37778 10.925 5.37778 11.3269C5.37778 11.7288 5.15778 12.0577 4.88889 12.0577Z" fill="#0B0B0B"/>
</g>
<defs>
<clipPath id="clip0_204_2445">
<rect width="22" height="19" fill="white"/>
</clipPath>
</defs>
</svg>
