<svg width="20" height="20" viewBox="0 0 20 20" fill="none" xmlns="http://www.w3.org/2000/svg">
<path d="M10.7666 8.52437H10.95L11.0351 8.36189C11.518 7.43989 12.7261 6.43887 14.5738 6.43887C16.5367 6.43887 17.6308 7.07505 18.2582 8.06791C18.9058 9.09283 19.0964 10.5558 19.0964 12.2952V19.0731H15.6772V13.0712C15.6772 12.3334 15.6751 11.4169 15.3862 10.6863C15.2382 10.3121 15.0098 9.97115 14.657 9.72593C14.3038 9.48036 13.8519 9.34887 13.2886 9.34887C12.7279 9.34887 12.264 9.4582 11.8867 9.66723C11.5076 9.87725 11.2341 10.1779 11.0404 10.5307C10.661 11.2217 10.5847 12.1205 10.5847 12.9742V19.0974H7.16543V6.75412H10.4149V8.22124V8.52437H10.7181H10.7666Z" fill="#FEFEFE" stroke="#FEFEFE" stroke-width="0.60625"/>
<path d="M0.618555 6.75332H4.0378V19.0966H0.618555V6.75332Z" fill="#FEFEFE" stroke="#FEFEFE" stroke-width="0.60625"/>
<path d="M0.303125 2.328C0.303125 1.21016 1.21016 0.303125 2.328 0.303125C3.44584 0.303125 4.35288 1.21016 4.35288 2.328C4.35288 3.44994 3.44177 4.37712 2.328 4.37712C1.21423 4.37712 0.303125 3.44994 0.303125 2.328Z" fill="#FEFEFE" stroke="white" stroke-width="0.60625"/>
</svg>
