<svg width="70" height="70" viewBox="0 0 70 70" fill="none" xmlns="http://www.w3.org/2000/svg">
<path d="M16.1679 43.3495V43.1095H16.9119C17.2159 43.1095 17.4799 43.0695 17.7039 42.9895C17.9279 42.8935 18.1039 42.7335 18.2319 42.5095C18.3599 42.2855 18.4239 41.9655 18.4239 41.5495V28.0375C18.4239 27.6055 18.3599 27.2775 18.2319 27.0535C18.1039 26.8295 17.9279 26.6775 17.7039 26.5975C17.4799 26.5015 17.2159 26.4535 16.9119 26.4535H16.1679V26.2135H28.9839L29.1279 30.5575H28.8879L28.8399 29.7415C28.7759 28.9255 28.6159 28.2775 28.3599 27.7975C28.1039 27.3175 27.7119 26.9735 27.1839 26.7655C26.6719 26.5575 25.9919 26.4535 25.1439 26.4535H21.7119V34.4695H27.5199V34.7095H21.7119V41.4775C21.7119 41.9095 21.7679 42.2455 21.8799 42.4855C21.9919 42.7095 22.1599 42.8695 22.3839 42.9655C22.6239 43.0615 22.8959 43.1095 23.1999 43.1095H24.2559V43.3495H16.1679ZM30.6969 46.2775L36.0249 25.1095H36.2649L30.9369 46.2775H30.6969ZM37.707 43.3495V43.1095H38.451C38.755 43.1095 39.019 43.0695 39.243 42.9895C39.467 42.8935 39.643 42.7335 39.771 42.5095C39.899 42.2855 39.963 41.9655 39.963 41.5495V27.9895C39.963 27.5735 39.899 27.2615 39.771 27.0535C39.643 26.8295 39.467 26.6775 39.243 26.5975C39.019 26.5015 38.755 26.4535 38.451 26.4535H37.707V26.2135H45.483V26.4535H44.739C44.435 26.4535 44.163 26.5015 43.923 26.5975C43.699 26.6935 43.523 26.8615 43.395 27.1015C43.283 27.3255 43.227 27.6535 43.227 28.0855V35.7895L48.963 29.4775C49.267 29.1415 49.523 28.8375 49.731 28.5655C49.939 28.2935 50.091 28.0535 50.187 27.8455C50.283 27.6215 50.331 27.4375 50.331 27.2935C50.331 27.0695 50.259 26.9015 50.115 26.7895C49.971 26.6615 49.723 26.5735 49.371 26.5255C49.019 26.4775 48.563 26.4535 48.003 26.4535V26.2135H53.691V26.4535C53.291 26.4535 52.923 26.5095 52.587 26.6215C52.251 26.7175 51.891 26.9255 51.507 27.2455C51.123 27.5495 50.643 28.0135 50.067 28.6375L46.467 32.5975L51.483 40.2295C51.867 40.8055 52.195 41.2775 52.467 41.6455C52.739 42.0135 52.979 42.3095 53.187 42.5335C53.395 42.7415 53.587 42.8935 53.763 42.9895C53.939 43.0695 54.123 43.1095 54.315 43.1095H54.363V43.3495H53.451C52.587 43.3495 51.867 43.3095 51.291 43.2295C50.731 43.1495 50.267 43.0295 49.899 42.8695C49.547 42.6935 49.243 42.4695 48.987 42.1975C48.731 41.9095 48.475 41.5655 48.219 41.1655L44.307 34.9495L43.227 36.1495V41.4775C43.227 41.9095 43.283 42.2455 43.395 42.4855C43.523 42.7095 43.699 42.8695 43.923 42.9655C44.163 43.0615 44.435 43.1095 44.739 43.1095H45.483V43.3495H37.707Z" fill="black"/>
<path d="M65.15 31.9417C65.15 49.2057 50.7294 63.2335 32.9 63.2335C15.0706 63.2335 0.65 49.2057 0.65 31.9417C0.65 14.6778 15.0706 0.65 32.9 0.65C50.7294 0.65 65.15 14.6778 65.15 31.9417Z" stroke="black" stroke-width="1.3"/>
<path d="M67.3501 35C67.3501 52.1289 52.8876 66.052 35.0001 66.052C17.1126 66.052 2.6501 52.1289 2.6501 35C2.6501 17.8712 17.1126 3.94807 35.0001 3.94807C52.8876 3.94807 67.3501 17.8712 67.3501 35Z" stroke="black" stroke-width="1.1"/>
<path d="M69.5502 38.0583C69.5502 55.4382 55.0345 69.55 37.1002 69.55C19.1659 69.55 4.6502 55.4382 4.6502 38.0583C4.6502 20.6783 19.1659 6.56652 37.1002 6.56652C55.0345 6.56652 69.5502 20.6783 69.5502 38.0583Z" stroke="black" stroke-width="0.9"/>
</svg>
