<svg width="358" height="376" viewBox="0 0 358 376" fill="none" xmlns="http://www.w3.org/2000/svg">
<g clip-path="url(#clip0_77_382)">
<path d="M249.715 45.9783L249.029 46.6987L296.091 91.505L296.777 90.7845L249.715 45.9783Z" fill="#E6E6E6"/>
<path d="M296.853 85.9258L295.859 85.9859L296.159 90.881L291.254 90.8221L291.243 91.8171L297.217 91.8879L296.853 85.9258Z" fill="#E6E6E6"/>
<path d="M254.564 45.6654L254.553 46.6604L249.649 46.6015L249.949 51.4966L248.955 51.5567L248.592 45.594L254.564 45.6654Z" fill="#E6E6E6"/>
<path d="M272.903 74.2122C275.925 74.2122 278.374 71.763 278.374 68.7417C278.374 65.7205 275.925 63.2712 272.903 63.2712C269.882 63.2712 267.433 65.7205 267.433 68.7417C267.433 71.763 269.882 74.2122 272.903 74.2122Z" fill="#E6E6E6"/>
<path d="M109.28 45.9784L62.2173 90.7847L62.9032 91.5051L109.965 46.6988L109.28 45.9784Z" fill="#E6E6E6"/>
<path d="M61.7783 91.8879L67.7517 91.8171L67.7404 90.8221L62.8364 90.881L63.1363 85.9859L62.1425 85.9258L61.7783 91.8879Z" fill="#E6E6E6"/>
<path d="M110.403 45.594L110.04 51.5567L109.046 51.4966L109.345 46.6015L104.441 46.6604L104.431 45.6654L110.403 45.594Z" fill="#E6E6E6"/>
<path d="M86.0913 74.2122C89.1126 74.2122 91.5618 71.763 91.5618 68.7417C91.5618 65.7205 89.1126 63.2712 86.0913 63.2712C83.0701 63.2712 80.6208 65.7205 80.6208 68.7417C80.6208 71.763 83.0701 74.2122 86.0913 74.2122Z" fill="#E6E6E6"/>
<path d="M220.277 113.633H137.723C136.536 113.632 135.398 113.16 134.559 112.321C133.72 111.482 133.248 110.344 133.247 109.157V4.72096C133.248 3.53431 133.72 2.39665 134.559 1.55756C135.398 0.718468 136.536 0.246469 137.723 0.245117H220.277C221.464 0.246469 222.602 0.718468 223.441 1.55756C224.28 2.39665 224.752 3.53431 224.753 4.72096V109.157C224.752 110.344 224.28 111.482 223.441 112.321C222.602 113.16 221.464 113.632 220.277 113.633ZM137.723 1.23975C136.8 1.24079 135.915 1.60789 135.262 2.26052C134.61 2.91315 134.242 3.79801 134.241 4.72096V109.157C134.242 110.08 134.61 110.965 135.262 111.618C135.915 112.271 136.8 112.638 137.723 112.639H220.277C221.2 112.638 222.085 112.271 222.738 111.618C223.39 110.965 223.757 110.08 223.758 109.157V4.72096C223.757 3.79801 223.39 2.91315 222.738 2.26052C222.085 1.60789 221.2 1.24079 220.277 1.23975H137.723Z" fill="#3F3D56"/>
<path d="M172.133 50.4454H153.961C153.367 50.4447 152.799 50.2087 152.379 49.7892C151.96 49.3696 151.724 48.8008 151.723 48.2074V26.7633C151.724 26.17 151.96 25.6011 152.379 25.1816C152.799 24.762 153.367 24.526 153.961 24.5254H172.133C172.726 24.526 173.295 24.762 173.714 25.1816C174.134 25.6011 174.37 26.17 174.371 26.7633V48.2074C174.37 48.8008 174.134 49.3696 173.714 49.7892C173.295 50.2087 172.726 50.4447 172.133 50.4454Z" fill="#EADBF8"/>
<path d="M207.442 60.3916H189.27C188.677 60.391 188.108 60.155 187.688 59.7354C187.269 59.3159 187.033 58.747 187.032 58.1537V36.7096C187.033 36.1163 187.269 35.5474 187.688 35.1279C188.108 34.7083 188.677 34.4723 189.27 34.4717H207.442C208.035 34.4723 208.604 34.7083 209.024 35.1279C209.443 35.5474 209.679 36.1163 209.68 36.7096V58.1537C209.679 58.747 209.443 59.3159 209.024 59.7354C208.604 60.155 208.035 60.391 207.442 60.3916Z" fill="#CCCCCC"/>
<path d="M179.095 90.7278H160.923C160.33 90.7272 159.761 90.4912 159.342 90.0716C158.922 89.6521 158.686 89.0832 158.685 88.4899V67.0458C158.686 66.4525 158.922 65.8836 159.342 65.4641C159.761 65.0445 160.33 64.8085 160.923 64.8079H179.095C179.689 64.8085 180.257 65.0445 180.677 65.4641C181.096 65.8836 181.332 66.4525 181.333 67.0458V88.4899C181.332 89.0832 181.096 89.6521 180.677 90.0716C180.257 90.4912 179.689 90.7272 179.095 90.7278Z" fill="#FF6584"/>
<path d="M353.524 221.02H270.969C269.783 221.018 268.645 220.546 267.806 219.707C266.967 218.868 266.495 217.731 266.494 216.544V112.107C266.495 110.921 266.967 109.783 267.806 108.944C268.645 108.105 269.783 107.633 270.969 107.632H353.524C354.711 107.633 355.848 108.105 356.688 108.944C357.527 109.783 357.999 110.921 358 112.107V216.544C357.999 217.731 357.527 218.868 356.688 219.707C355.848 220.546 354.711 221.018 353.524 221.02ZM270.969 108.626C270.047 108.627 269.162 108.994 268.509 109.647C267.856 110.3 267.489 111.184 267.488 112.107V216.544C267.489 217.467 267.856 218.352 268.509 219.004C269.162 219.657 270.047 220.024 270.969 220.025H353.524C354.447 220.024 355.332 219.657 355.985 219.004C356.637 218.352 357.004 217.467 357.005 216.544V112.107C357.004 111.184 356.637 110.3 355.985 109.647C355.332 108.994 354.447 108.627 353.524 108.626H270.969Z" fill="#3F3D56"/>
<path d="M326.42 130.757H298.073C297.546 130.757 297.04 130.548 296.667 130.174C296.294 129.801 296.084 129.295 296.084 128.768C296.084 128.24 296.294 127.734 296.667 127.361C297.04 126.988 297.546 126.779 298.073 126.779H326.42C326.948 126.779 327.454 126.988 327.827 127.361C328.2 127.734 328.41 128.24 328.41 128.768C328.41 129.295 328.2 129.801 327.827 130.174C327.454 130.548 326.948 130.757 326.42 130.757Z" fill="#EADBF8"/>
<path d="M340.345 149.655H284.148C283.887 149.655 283.628 149.604 283.386 149.504C283.144 149.405 282.925 149.258 282.74 149.073C282.555 148.889 282.408 148.669 282.308 148.428C282.207 148.186 282.156 147.927 282.156 147.666C282.156 147.404 282.207 147.145 282.308 146.903C282.408 146.662 282.555 146.442 282.74 146.258C282.925 146.073 283.144 145.926 283.386 145.827C283.628 145.727 283.887 145.676 284.148 145.676H340.345C340.607 145.676 340.866 145.727 341.108 145.827C341.349 145.926 341.569 146.073 341.754 146.258C341.939 146.442 342.086 146.662 342.186 146.903C342.286 147.145 342.338 147.404 342.338 147.666C342.338 147.927 342.286 148.186 342.186 148.428C342.086 148.669 341.939 148.889 341.754 149.073C341.569 149.258 341.349 149.405 341.108 149.504C340.866 149.604 340.607 149.655 340.345 149.655Z" fill="#CCCCCC"/>
<path d="M340.345 160.099H284.148C283.887 160.099 283.628 160.048 283.386 159.948C283.144 159.848 282.925 159.702 282.74 159.517C282.555 159.332 282.408 159.113 282.308 158.871C282.207 158.63 282.156 158.371 282.156 158.109C282.156 157.848 282.207 157.589 282.308 157.347C282.408 157.106 282.555 156.886 282.74 156.702C282.925 156.517 283.144 156.37 283.386 156.271C283.628 156.171 283.887 156.12 284.148 156.12H340.345C340.607 156.12 340.866 156.171 341.108 156.271C341.349 156.37 341.569 156.517 341.754 156.702C341.939 156.886 342.086 157.106 342.186 157.347C342.286 157.589 342.338 157.848 342.338 158.109C342.338 158.371 342.286 158.63 342.186 158.871C342.086 159.113 341.939 159.332 341.754 159.517C341.569 159.702 341.349 159.848 341.108 159.948C340.866 160.048 340.607 160.099 340.345 160.099Z" fill="#CCCCCC"/>
<path d="M340.345 170.542H284.148C283.887 170.543 283.628 170.492 283.386 170.392C283.144 170.292 282.925 170.146 282.74 169.961C282.555 169.776 282.408 169.557 282.308 169.315C282.207 169.073 282.156 168.815 282.156 168.553C282.156 168.291 282.207 168.033 282.308 167.791C282.408 167.549 282.555 167.33 282.74 167.145C282.925 166.96 283.144 166.814 283.386 166.714C283.628 166.614 283.887 166.563 284.148 166.564H340.345C340.607 166.563 340.866 166.614 341.108 166.714C341.349 166.814 341.569 166.96 341.754 167.145C341.939 167.33 342.086 167.549 342.186 167.791C342.286 168.033 342.338 168.291 342.338 168.553C342.338 168.815 342.286 169.073 342.186 169.315C342.086 169.557 341.939 169.776 341.754 169.961C341.569 170.146 341.349 170.292 341.108 170.392C340.866 170.492 340.607 170.543 340.345 170.542Z" fill="#CCCCCC"/>
<path d="M340.345 180.986H284.148C283.887 180.986 283.628 180.935 283.386 180.835C283.144 180.735 282.925 180.589 282.74 180.404C282.555 180.219 282.408 180 282.308 179.758C282.207 179.517 282.156 179.258 282.156 178.996C282.156 178.735 282.207 178.476 282.308 178.234C282.408 177.993 282.555 177.773 282.74 177.589C282.925 177.404 283.144 177.257 283.386 177.158C283.628 177.058 283.887 177.007 284.148 177.007H340.345C340.607 177.007 340.866 177.058 341.108 177.158C341.349 177.257 341.569 177.404 341.754 177.589C341.939 177.773 342.086 177.993 342.186 178.234C342.286 178.476 342.338 178.735 342.338 178.996C342.338 179.258 342.286 179.517 342.186 179.758C342.086 180 341.939 180.219 341.754 180.404C341.569 180.589 341.349 180.735 341.108 180.835C340.866 180.935 340.607 180.986 340.345 180.986Z" fill="#CCCCCC"/>
<path d="M340.345 191.429H284.148C283.887 191.43 283.628 191.379 283.386 191.279C283.144 191.179 282.925 191.033 282.74 190.848C282.555 190.663 282.408 190.444 282.308 190.202C282.207 189.961 282.156 189.702 282.156 189.44C282.156 189.179 282.207 188.92 282.308 188.678C282.408 188.437 282.555 188.217 282.74 188.032C282.925 187.848 283.144 187.701 283.386 187.601C283.628 187.502 283.887 187.45 284.148 187.451H340.345C340.607 187.45 340.866 187.502 341.108 187.601C341.349 187.701 341.569 187.848 341.754 188.032C341.939 188.217 342.086 188.437 342.186 188.678C342.286 188.92 342.338 189.179 342.338 189.44C342.338 189.702 342.286 189.961 342.186 190.202C342.086 190.444 341.939 190.663 341.754 190.848C341.569 191.033 341.349 191.179 341.108 191.279C340.866 191.379 340.607 191.43 340.345 191.429Z" fill="#CCCCCC"/>
<path d="M340.345 201.873H284.148C283.887 201.874 283.628 201.822 283.386 201.723C283.144 201.623 282.925 201.476 282.74 201.292C282.555 201.107 282.408 200.887 282.308 200.646C282.207 200.404 282.156 200.145 282.156 199.884C282.156 199.622 282.207 199.363 282.308 199.122C282.408 198.88 282.555 198.661 282.74 198.476C282.925 198.291 283.144 198.145 283.386 198.045C283.628 197.945 283.887 197.894 284.148 197.895H340.345C340.607 197.894 340.866 197.945 341.108 198.045C341.349 198.145 341.569 198.291 341.754 198.476C341.939 198.661 342.086 198.88 342.186 199.122C342.286 199.363 342.338 199.622 342.338 199.884C342.338 200.145 342.286 200.404 342.186 200.646C342.086 200.887 341.939 201.107 341.754 201.292C341.569 201.476 341.349 201.623 341.108 201.723C340.866 201.822 340.607 201.874 340.345 201.873Z" fill="#CCCCCC"/>
<path d="M87.0304 221.02H4.47585C3.28919 221.018 2.15153 220.546 1.31243 219.707C0.473341 218.868 0.00134978 217.731 0 216.544V112.107C0.00134978 110.921 0.473341 109.783 1.31243 108.944C2.15153 108.105 3.28919 107.633 4.47585 107.632H87.0304C88.2171 107.633 89.3547 108.105 90.1938 108.944C91.0329 109.783 91.5049 110.921 91.5063 112.107V216.544C91.5049 217.731 91.0329 218.868 90.1938 219.707C89.3547 220.546 88.2171 221.018 87.0304 221.02ZM4.47585 108.626C3.55289 108.627 2.66803 108.994 2.0154 109.647C1.36277 110.3 0.995663 111.184 0.994627 112.107V216.544C0.995663 217.467 1.36277 218.352 2.0154 219.004C2.66803 219.657 3.55289 220.024 4.47585 220.025H87.0304C87.9534 220.024 88.8382 219.657 89.4909 219.004C90.1435 218.352 90.5106 217.467 90.5116 216.544V112.107C90.5106 111.184 90.1435 110.3 89.4909 109.647C88.8382 108.994 87.9534 108.627 87.0304 108.626H4.47585Z" fill="#3F3D56"/>
<path d="M73.9376 132.289H49.0718C48.5442 132.289 48.0382 132.08 47.6652 131.707C47.2921 131.334 47.0825 130.828 47.0825 130.3C47.0825 129.772 47.2921 129.266 47.6652 128.893C48.0382 128.52 48.5442 128.311 49.0718 128.311H73.9376C74.4652 128.311 74.9712 128.52 75.3443 128.893C75.7173 129.266 75.9269 129.772 75.9269 130.3C75.9269 130.828 75.7173 131.334 75.3443 131.707C74.9712 132.08 74.4652 132.289 73.9376 132.289Z" fill="#3F3D56"/>
<path d="M73.9376 142.732H49.0718C48.5442 142.732 48.0382 142.523 47.6652 142.15C47.2921 141.777 47.0825 141.271 47.0825 140.743C47.0825 140.216 47.2921 139.71 47.6652 139.337C48.0382 138.963 48.5442 138.754 49.0718 138.754H73.9376C74.4652 138.754 74.9712 138.963 75.3443 139.337C75.7173 139.71 75.9269 140.216 75.9269 140.743C75.9269 141.271 75.7173 141.777 75.3443 142.15C74.9712 142.523 74.4652 142.732 73.9376 142.732Z" fill="#3F3D56"/>
<path d="M36.3132 148.68H18.1413C17.5479 148.679 16.9791 148.443 16.5595 148.024C16.14 147.604 15.904 147.035 15.9033 146.442V124.998C15.904 124.404 16.14 123.836 16.5595 123.416C16.9791 122.996 17.5479 122.76 18.1413 122.76H36.3132C36.9065 122.76 37.4754 122.996 37.8949 123.416C38.3145 123.836 38.5505 124.404 38.5511 124.998V146.442C38.5505 147.035 38.3145 147.604 37.8949 148.024C37.4754 148.443 36.9065 148.679 36.3132 148.68Z" fill="#EADBF8"/>
<path d="M73.7654 164.118H17.5686C17.3071 164.118 17.0481 164.067 16.8063 163.967C16.5646 163.867 16.3449 163.721 16.1598 163.536C15.9747 163.351 15.8279 163.132 15.7277 162.89C15.6275 162.649 15.5759 162.39 15.5759 162.128C15.5759 161.867 15.6275 161.608 15.7277 161.366C15.8279 161.125 15.9747 160.905 16.1598 160.721C16.3449 160.536 16.5646 160.389 16.8063 160.29C17.0481 160.19 17.3071 160.139 17.5686 160.139H73.7654C74.027 160.139 74.286 160.19 74.5277 160.29C74.7695 160.389 74.9892 160.536 75.1743 160.721C75.3594 160.905 75.5062 161.125 75.6064 161.366C75.7066 161.608 75.7581 161.867 75.7581 162.128C75.7581 162.39 75.7066 162.649 75.6064 162.89C75.5062 163.132 75.3594 163.351 75.1743 163.536C74.9892 163.721 74.7695 163.867 74.5277 163.967C74.286 164.067 74.027 164.118 73.7654 164.118Z" fill="#CCCCCC"/>
<path d="M73.7654 174.561H17.5686C17.3071 174.561 17.0481 174.51 16.8063 174.41C16.5646 174.311 16.3449 174.164 16.1598 173.979C15.9747 173.795 15.8279 173.575 15.7277 173.334C15.6275 173.092 15.5759 172.833 15.5759 172.572C15.5759 172.31 15.6275 172.051 15.7277 171.809C15.8279 171.568 15.9747 171.348 16.1598 171.164C16.3449 170.979 16.5646 170.832 16.8063 170.733C17.0481 170.633 17.3071 170.582 17.5686 170.582H73.7654C74.027 170.582 74.286 170.633 74.5277 170.733C74.7695 170.832 74.9892 170.979 75.1743 171.164C75.3594 171.348 75.5062 171.568 75.6064 171.809C75.7066 172.051 75.7581 172.31 75.7581 172.572C75.7581 172.833 75.7066 173.092 75.6064 173.334C75.5062 173.575 75.3594 173.795 75.1743 173.979C74.9892 174.164 74.7695 174.311 74.5277 174.41C74.286 174.51 74.027 174.561 73.7654 174.561Z" fill="#CCCCCC"/>
<path d="M73.7654 185.005H17.5686C17.3071 185.005 17.0481 184.954 16.8063 184.854C16.5646 184.755 16.3449 184.608 16.1598 184.423C15.9747 184.239 15.8279 184.019 15.7277 183.778C15.6275 183.536 15.5759 183.277 15.5759 183.016C15.5759 182.754 15.6275 182.495 15.7277 182.254C15.8279 182.012 15.9747 181.793 16.1598 181.608C16.3449 181.423 16.5646 181.277 16.8063 181.177C17.0481 181.077 17.3071 181.026 17.5686 181.026H73.7654C74.027 181.026 74.286 181.077 74.5277 181.177C74.7695 181.277 74.9892 181.423 75.1743 181.608C75.3594 181.793 75.5062 182.012 75.6064 182.254C75.7066 182.495 75.7581 182.754 75.7581 183.016C75.7581 183.277 75.7066 183.536 75.6064 183.778C75.5062 184.019 75.3594 184.239 75.1743 184.423C74.9892 184.608 74.7695 184.755 74.5277 184.854C74.286 184.954 74.027 185.005 73.7654 185.005Z" fill="#CCCCCC"/>
<path d="M73.7654 195.448H17.5686C17.3071 195.449 17.0481 195.398 16.8063 195.298C16.5646 195.198 16.3449 195.052 16.1598 194.867C15.9747 194.682 15.8279 194.463 15.7277 194.221C15.6275 193.98 15.5759 193.721 15.5759 193.459C15.5759 193.198 15.6275 192.939 15.7277 192.697C15.8279 192.456 15.9747 192.236 16.1598 192.051C16.3449 191.867 16.5646 191.72 16.8063 191.62C17.0481 191.521 17.3071 191.47 17.5686 191.47H73.7654C74.027 191.47 74.286 191.521 74.5277 191.62C74.7695 191.72 74.9892 191.867 75.1743 192.051C75.3594 192.236 75.5062 192.456 75.6064 192.697C75.7066 192.939 75.7581 193.198 75.7581 193.459C75.7581 193.721 75.7066 193.98 75.6064 194.221C75.5062 194.463 75.3594 194.682 75.1743 194.867C74.9892 195.052 74.7695 195.198 74.5277 195.298C74.286 195.398 74.027 195.449 73.7654 195.448Z" fill="#CCCCCC"/>
<path d="M73.7654 205.892H17.5686C17.3071 205.893 17.0481 205.841 16.8063 205.742C16.5646 205.642 16.3449 205.495 16.1598 205.311C15.9747 205.126 15.8279 204.906 15.7277 204.665C15.6275 204.423 15.5759 204.164 15.5759 203.903C15.5759 203.641 15.6275 203.382 15.7277 203.141C15.8279 202.899 15.9747 202.68 16.1598 202.495C16.3449 202.31 16.5646 202.164 16.8063 202.064C17.0481 201.964 17.3071 201.913 17.5686 201.914H73.7654C74.027 201.913 74.286 201.964 74.5277 202.064C74.7695 202.164 74.9892 202.31 75.1743 202.495C75.3594 202.68 75.5062 202.899 75.6064 203.141C75.7066 203.382 75.7581 203.641 75.7581 203.903C75.7581 204.164 75.7066 204.423 75.6064 204.665C75.5062 204.906 75.3594 205.126 75.1743 205.311C74.9892 205.495 74.7695 205.642 74.5277 205.742C74.286 205.841 74.027 205.893 73.7654 205.892Z" fill="#CCCCCC"/>
<path d="M118.24 281.55V260.106C118.24 259.513 118.476 258.944 118.896 258.525C119.315 258.105 119.884 257.869 120.477 257.868H138.649C139.243 257.869 139.812 258.105 140.231 258.525C140.651 258.944 140.887 259.513 140.887 260.106V281.55C140.887 282.144 140.651 282.713 140.231 283.132C139.812 283.552 139.243 283.788 138.649 283.788H120.477C119.884 283.788 119.315 283.552 118.896 283.132C118.476 282.713 118.24 282.144 118.24 281.55Z" fill="#E6E6E6"/>
<path d="M124.785 274.41V252.965C124.786 252.372 125.022 251.803 125.442 251.384C125.861 250.964 126.43 250.728 127.023 250.728H145.195C145.789 250.728 146.357 250.964 146.777 251.384C147.197 251.803 147.433 252.372 147.433 252.965V274.41C147.433 275.003 147.197 275.572 146.777 275.991C146.357 276.411 145.789 276.647 145.195 276.648H127.023C126.43 276.647 125.861 276.411 125.442 275.991C125.022 275.572 124.786 275.003 124.785 274.41Z" fill="#EADBF8"/>
<path d="M206.245 267.548C205.561 267.153 204.973 266.613 204.52 265.966C204.068 265.318 203.763 264.58 203.627 263.802C203.491 263.024 203.527 262.226 203.733 261.463C203.939 260.701 204.309 259.993 204.818 259.389L199.185 218.217L210.919 218.792L212.761 258.952C213.719 259.874 214.305 261.116 214.408 262.441C214.511 263.767 214.125 265.085 213.321 266.144C212.518 267.204 211.354 267.932 210.05 268.191C208.746 268.45 207.392 268.221 206.245 267.548V267.548Z" fill="#A0616A"/>
<path d="M212.529 219.341C212.289 219.624 211.981 219.842 211.634 219.974L201.089 223.999C200.559 224.201 199.972 224.192 199.449 223.975C198.926 223.757 198.505 223.348 198.275 222.83L188.934 201.838C188.037 199.891 187.885 197.683 188.505 195.631C188.964 194.166 189.809 192.852 190.952 191.828C192.095 190.803 193.493 190.106 194.998 189.809C196.156 189.571 197.353 189.588 198.503 189.859C199.883 190.166 201.163 190.813 202.23 191.74C203.296 192.667 204.114 193.845 204.611 195.168L212.916 217.12C213.055 217.491 213.093 217.893 213.025 218.283C212.957 218.674 212.786 219.039 212.529 219.341Z" fill="#CCCCCC"/>
<path d="M157.581 368.04H150.286L147.64 339.768L157.582 339.901L157.581 368.04Z" fill="#A0616A"/>
<path d="M145.075 365.956H159.145V374.815H136.216C136.216 373.651 136.445 372.499 136.89 371.425C137.335 370.35 137.988 369.373 138.811 368.551C139.633 367.728 140.61 367.075 141.685 366.63C142.759 366.185 143.911 365.956 145.075 365.956Z" fill="#2F2E41"/>
<path d="M191.501 368.04H184.205L180.735 339.9L191.502 339.901L191.501 368.04Z" fill="#A0616A"/>
<path d="M178.994 365.956H193.064V374.815H170.135C170.135 373.651 170.364 372.499 170.81 371.425C171.255 370.35 171.907 369.373 172.73 368.551C173.553 367.728 174.529 367.075 175.604 366.63C176.679 366.185 177.831 365.956 178.994 365.956Z" fill="#2F2E41"/>
<path d="M192.418 358.028L180.96 357.18C180.308 357.131 179.697 356.846 179.241 356.378C178.785 355.91 178.515 355.291 178.483 354.639L175.928 301.837C175.904 301.33 175.695 300.85 175.341 300.486C174.988 300.122 174.513 299.9 174.008 299.861C173.502 299.822 172.999 299.969 172.594 300.274C172.189 300.58 171.909 301.023 171.807 301.52L161.149 353.534C161.017 354.174 160.656 354.743 160.133 355.136C159.611 355.528 158.963 355.717 158.312 355.665L147.954 354.837C147.599 354.808 147.253 354.709 146.937 354.546C146.621 354.382 146.34 354.157 146.112 353.884C145.884 353.61 145.712 353.294 145.608 352.954C145.503 352.614 145.468 352.256 145.503 351.901L155.112 255.81C155.15 255.434 155.266 255.071 155.454 254.744C155.642 254.416 155.897 254.132 156.202 253.91C156.508 253.688 156.856 253.534 157.226 253.456C157.595 253.378 157.977 253.38 158.346 253.46L194.887 261.403C195.492 261.536 196.033 261.874 196.417 262.361C196.802 262.847 197.006 263.451 196.995 264.07L195.294 355.408C195.28 356.108 194.993 356.775 194.494 357.267C193.994 357.758 193.323 358.034 192.622 358.036C192.555 358.036 192.487 358.033 192.418 358.028Z" fill="#2F2E41"/>
<path d="M182.394 175.466C190.466 175.466 197.01 168.922 197.01 160.85C197.01 152.778 190.466 146.234 182.394 146.234C174.322 146.234 167.778 152.778 167.778 160.85C167.778 168.922 174.322 175.466 182.394 175.466Z" fill="#A0616A"/>
<path d="M159.717 263.22C158.311 261.96 157.196 260.41 156.446 258.678C155.697 256.945 155.332 255.071 155.376 253.183C155.376 232.177 173.559 185.244 174.13 183.78C174.185 183.427 174.665 183.275 177.182 181.574C179.701 179.873 183.332 179.611 187.976 180.798C188.448 180.918 188.878 181.166 189.219 181.515C189.56 181.863 189.799 182.298 189.91 182.772L190.774 184.02C190.849 184.337 190.998 184.631 191.208 184.88C191.417 185.129 191.682 185.325 191.982 185.452C195.727 187.03 207.631 194.306 203.575 221.688C199.806 247.123 198.277 262.082 197.795 267.333C197.738 267.956 197.464 268.54 197.022 268.982C196.579 269.424 195.995 269.697 195.372 269.753C193.536 269.917 190.384 270.136 186.631 270.136C177.93 270.136 165.995 268.962 159.717 263.22Z" fill="#CCCCCC"/>
<path d="M142.252 255.438C141.905 254.729 141.717 253.952 141.702 253.162C141.687 252.373 141.845 251.589 142.166 250.868C142.486 250.146 142.961 249.503 143.557 248.985C144.152 248.466 144.855 248.085 145.614 247.867L163.879 210.541L173.301 217.557L152.453 251.93C152.734 253.23 152.529 254.587 151.876 255.746C151.223 256.904 150.168 257.782 148.91 258.215C147.653 258.647 146.281 258.603 145.054 258.091C143.826 257.58 142.83 256.635 142.252 255.438L142.252 255.438Z" fill="#A0616A"/>
<path d="M174.332 218.909C173.975 219.011 173.598 219.02 173.236 218.936L162.237 216.402C161.685 216.275 161.202 215.941 160.889 215.469C160.575 214.996 160.455 214.422 160.552 213.864L164.493 191.228C164.833 189.111 165.937 187.193 167.596 185.834C168.793 184.874 170.227 184.254 171.746 184.04C173.266 183.826 174.815 184.026 176.231 184.619C177.325 185.066 178.309 185.747 179.114 186.613C180.088 187.637 180.791 188.887 181.16 190.251C181.529 191.615 181.552 193.05 181.227 194.425L175.891 217.281C175.8 217.667 175.608 218.021 175.334 218.308C175.06 218.594 174.714 218.802 174.332 218.909Z" fill="#CCCCCC"/>
<path d="M178.972 174.056C178.261 173.33 177.736 172.443 177.441 171.47C177.147 170.497 177.093 169.468 177.283 168.47C177.792 165.804 178.092 164.06 178.148 163.425C178.342 161.255 176.148 159.498 173.977 159.218C173.893 159.207 173.822 159.2 173.763 159.195C173.819 159.249 173.878 159.305 173.93 159.354C174.343 159.741 174.856 160.224 174.734 160.721C174.66 161.021 174.387 161.233 173.897 161.37C170.501 162.321 167.886 161.448 165.667 158.623C165.043 157.82 164.614 156.884 164.414 155.887C163.619 151.986 165.737 148.661 167.655 146.559C169.235 144.825 171.798 142.721 175.03 142.541C177.543 142.401 180.532 143.847 181.426 146.453C181.848 145.828 182.41 145.309 183.067 144.939C183.724 144.568 184.459 144.356 185.212 144.319C186.928 144.282 188.617 144.752 190.067 145.669C197.154 149.729 200.199 159.399 196.718 166.787C194.528 171.434 189.783 174.894 184.334 175.816C183.993 175.874 183.648 175.903 183.302 175.903C182.493 175.902 181.693 175.738 180.949 175.42C180.205 175.103 179.533 174.639 178.972 174.056Z" fill="#2F2E41"/>
<path d="M110.434 375.146H226.475C226.633 375.146 226.784 375.083 226.896 374.971C227.007 374.86 227.07 374.708 227.07 374.551C227.07 374.393 227.007 374.241 226.896 374.13C226.784 374.018 226.633 373.956 226.475 373.956H110.434C110.276 373.956 110.125 374.018 110.013 374.13C109.902 374.241 109.839 374.393 109.839 374.551C109.839 374.708 109.902 374.86 110.013 374.971C110.125 375.083 110.276 375.146 110.434 375.146Z" fill="#3F3D56"/>
</g>
<defs>
<clipPath id="clip0_77_382">
<rect width="358" height="374.9" fill="white" transform="translate(0 0.245117)"/>
</clipPath>
</defs>
</svg>
